<?xml version="1.0" encoding="UTF-8"?>
<svg width="60px" height="58px" viewBox="0 0 60 58" version="1.1" xmlns="http://www.w3.org/2000/svg" xmlns:xlink="http://www.w3.org/1999/xlink">
    <!-- Generator: Sketch 62 (91390) - https://sketch.com -->
    <title>sprout</title>
    <desc>Created with Sketch.</desc>
    <g id="Page-1" stroke="none" stroke-width="1" fill="none" fill-rule="evenodd">
        <g id="Home-Page" transform="translate(-95.000000, -17.000000)" fill="#FFFFFF" fill-rule="nonzero">
            <path d="M150.234322,21.6058309 C149.985809,25.0170592 148.954009,31.5177982 144.788363,35.543349 C143.640865,36.6521426 142.473556,37.4307224 141.318438,37.8576782 C140.109514,38.3044581 139.504173,39.613759 139.966502,40.7820252 C140.323564,41.6841944 141.212702,42.2385913 142.156115,42.2385913 C142.434403,42.2385913 142.71738,42.1903336 142.992855,42.088494 C144.76738,41.4327108 146.486577,40.3081711 148.102851,38.7462537 C154.980809,32.099609 155.028753,21.0096334 154.996517,19.375103 C154.996986,19.3654741 154.997338,19.3558452 154.997689,19.3462163 C155.040124,18.0996731 154.031652,17.0545433 152.741727,17.008438 C152.216333,16.9890669 139.783516,16.6297399 132.503014,23.6655046 C129.701026,26.3732584 128.290596,29.320035 128.31111,32.423819 C128.327873,34.9819287 129.339041,37.0259697 129.995843,38.2422669 C127.832487,40.6236584 126.107547,43.3156662 124.860526,46.2661811 C124.593022,46.8990816 124.350136,47.5385524 124.13128,48.1836873 C123.124332,46.5515358 121.808501,44.6432054 120.120134,42.568352 C120.773537,41.3333634 121.673342,39.3783613 121.68905,36.9666105 C121.709447,33.8627132 120.299134,30.9159366 117.497146,28.2081828 C110.216527,21.1724181 97.7839446,21.5327647 97.2581983,21.5512295 C95.9764791,21.596995 94.9755097,22.6292107 95.004581,23.8654454 C94.9711724,25.2981092 94.9405771,36.566389 101.897192,43.2890452 C104.678783,45.9770882 107.723071,47.3400842 110.945421,47.3400842 C110.986566,47.3400842 114.23283,47.3213929 116.975737,46.0574044 C117.817869,47.1264364 118.52836,48.1125468 119.117172,48.9851498 C121.605939,52.6736898 122.534113,55.197702 122.550172,55.2421082 C122.593311,55.3629789 122.646296,55.4776192 122.707486,55.5863689 C122.681697,56.0754026 122.667865,56.5660223 122.667865,57.0583412 L122.667865,59.9032782 C121.617193,59.4239866 120.462661,59.1687647 119.275658,59.1687647 C115.196054,59.1687647 111.823658,62.1512248 111.370707,65.9784207 C107.842638,66.3389939 105.08461,69.2316222 105.08461,72.7351745 C105.08461,73.9860225 106.133875,75 107.428254,75 C108.722634,75 109.771899,73.9860225 109.771899,72.7351745 C109.771899,71.4863657 110.823274,70.4703491 112.115544,70.4703491 C112.434039,70.4703491 112.741985,70.5305013 113.030823,70.6491064 C113.87823,70.9971054 114.858216,70.8333012 115.53565,70.2305334 C116.212966,69.627539 116.462065,68.6971628 116.172406,67.852427 C116.062099,67.5307092 116.006184,67.1961906 116.006184,66.8579338 C116.006184,65.1157865 117.472881,63.6985289 119.275541,63.6985289 C120.962149,63.6985289 122.392507,64.9689744 122.531886,66.5909307 C122.616873,67.5796466 123.357958,68.400027 124.360334,68.6146943 C125.362359,68.8293617 126.392986,68.3886989 126.902438,67.5271975 C127.481052,66.5484503 128.562788,65.9405849 129.725291,65.9405849 C131.366886,65.9405849 132.752816,67.1259565 132.949048,68.6981824 C133.03298,69.3705046 133.423802,69.9711201 134.014256,70.3356581 C134.604944,70.7001961 135.333252,70.7902544 135.999549,70.5810246 C136.233761,70.5075052 136.477586,70.4702358 136.724106,70.4702358 C138.016375,70.4702358 139.067751,71.4862524 139.067751,72.7350613 C139.067751,73.9859092 140.117016,75 141.411396,75 C142.705775,75 143.75504,73.9859092 143.75504,72.7350613 C143.75504,69.0677047 140.732907,66.0696119 136.968868,65.9445497 C135.720323,63.2515224 132.921032,61.4108207 129.725291,61.4108207 C129.045982,61.4108207 128.378396,61.4963478 127.736012,61.6579997 C129.520854,58.7646917 133.541495,55.1824091 135.568871,54.5131454 C136.793737,54.1087326 137.447491,52.8214082 137.029004,51.6377358 C136.610517,50.4541768 135.278392,49.8224091 134.053526,50.2267087 C132.124265,50.8636873 129.645345,52.6583969 127.464758,54.7946485 C127.992614,49.3194418 130.429334,44.2206675 134.460173,40.2474525 L144.253943,30.5937657 C145.160078,29.7005456 145.145308,28.2666357 144.22112,27.3909742 C143.296815,26.5153127 141.812885,26.5295861 140.906867,27.4226929 L133.48429,34.7391677 C133.213269,34.0444158 133.004026,33.252922 132.998399,32.3951589 C132.986208,30.5212659 133.908286,28.713529 135.817619,26.8684093 C139.981624,22.8443312 146.704612,21.8465528 150.234322,21.6058309 Z M116.712807,40.3422989 C114.569757,37.7727866 112.014422,35.0866251 108.98067,32.4131233 C107.978398,31.5296637 106.52488,31.7214955 105.7343,32.841483 C104.943721,33.9614705 105.11541,35.5855169 106.117682,36.4687181 C109.227162,39.2090059 111.779491,41.958207 113.847738,44.5069213 C112.82084,44.8346501 111.696363,45 111.026487,45 C109.092123,45 107.242274,43.9838729 105.371383,41.8933588 C101.262175,37.302056 100.244989,29.8880488 100,26 C103.482919,26.2746359 110.112893,27.4128377 114.219326,32.0010402 C116.102357,34.1049891 117.01202,36.1665669 117,38.3031982 C116.995602,39.029317 116.880796,39.7135815 116.712807,40.3422989 Z" id="sprout"></path>
        </g>
    </g>
</svg>